<svg width="256" height="256" viewBox="0 0 512 512" fill="none" xmlns="http://www.w3.org/2000/svg">
<g clip-path="url(#clip0_251_35)">
<circle cx="256" cy="256" r="256" fill="white"/>
<path d="M217.5 113C210.412 113 204.667 118.746 204.667 125.833V197.86L255.98 249.174L307.333 197.821V125.833C307.333 118.746 301.588 113 294.5 113H217.5Z" fill="#221E24"/>
<path d="M307.333 336.327L255.98 284.973L204.667 336.287V408.167C204.667 415.254 210.412 421 217.5 421H294.5C301.588 421 307.333 415.254 307.333 408.167V336.327Z" fill="#221E24"/>
<path d="M186.821 205H114.833C107.746 205 102 210.746 102 217.833V305.5C102 312.588 107.746 318.333 114.833 318.333H186.821L238.08 267.074V256.5L186.821 205Z" fill="#221E24"/>
<path d="M325.14 318.333H397.167C404.254 318.333 410 312.588 410 305.5V217.833C410 210.746 404.254 205 397.167 205H325.14L273.88 256.5V267.074L325.14 318.333Z" fill="#221E24"/>
<path d="M217.5 102C210.412 102 204.667 107.746 204.667 114.833V186.86L255.98 238.174L307.333 186.821V114.833C307.333 107.746 301.588 102 294.5 102H217.5Z" fill="#A74BF2"/>
<path d="M307.333 325.327L255.98 273.973L204.667 325.287V397.167C204.667 404.254 210.412 410 217.5 410H294.5C301.588 410 307.333 404.254 307.333 397.167V325.327Z" fill="#A74BF2"/>
<path d="M186.727 204.667H114.833C107.746 204.667 102 210.412 102 217.5V294.5C102 301.588 107.746 307.333 114.833 307.333H186.821L238.08 256.074L186.7 204.693L186.727 204.667Z" fill="#A74BF2"/>
<path d="M325.14 307.333H397.167C404.254 307.333 410 301.588 410 294.5V217.5C410 210.412 404.254 204.667 397.167 204.667H325.233L325.26 204.693L273.88 256.074L325.14 307.333Z" fill="#A74BF2"/>
</g>
<defs>
<clipPath id="clip0_251_35">
<rect width="512" height="512" fill="white"/>
</clipPath>
</defs>
</svg>
