<svg width="512" height="512" viewBox="0 0 512 512" fill="none" xmlns="http://www.w3.org/2000/svg">
<g clip-path="url(#clip0_251_35)">
<circle cx="256" cy="256" r="246" stroke="#A74BF2" stroke-width="20"/>
<path d="M217.5 102C210.412 102 204.667 107.746 204.667 114.833V186.86L255.98 238.174L307.333 186.821V114.833C307.333 107.746 301.588 102 294.5 102H217.5Z" fill="#A74BF2"/>
<path d="M307.333 325.327L255.98 273.973L204.667 325.287V397.167C204.667 404.254 210.412 410 217.5 410H294.5C301.588 410 307.333 404.254 307.333 397.167V325.327Z" fill="#A74BF2"/>
<path d="M186.727 204.667H114.833C107.746 204.667 102 210.412 102 217.5V294.5C102 301.588 107.746 307.333 114.833 307.333H186.821L238.08 256.074L186.7 204.693L186.727 204.667Z" fill="#A74BF2"/>
<path d="M325.14 307.333H397.167C404.254 307.333 410 301.588 410 294.5V217.5C410 210.412 404.254 204.667 397.167 204.667H325.233L325.26 204.693L273.88 256.074L325.14 307.333Z" fill="#A74BF2"/>
</g>
<defs>
<clipPath id="clip0_251_35">
<rect width="512" height="512" fill="white"/>
</clipPath>
</defs>
</svg>
